<svg xmlns="http://www.w3.org/2000/svg" xmlns:xlink="http://www.w3.org/1999/xlink" width="33.271" height="43.647" viewBox="0 0 33.271 43.647">
  <defs>
    <clipPath id="clip-path">
      <rect id="Rectangle_263" data-name="Rectangle 263" width="33.271" height="43.647" fill="#fff"/>
    </clipPath>
  </defs>
  <g id="Group_159" data-name="Group 159" clip-path="url(#clip-path)">
    <path id="Path_159" data-name="Path 159" d="M0,23.055Q0,12.046,0,1.038C0,.068.06.008,1.022.008Q10.984.007,20.945,0A1.817,1.817,0,0,1,22.18.429q5.2,4.234,10.424,8.433a1.6,1.6,0,0,1,.667,1.388c-.017,11.6-.012,20.715-.013,32.318,0,.979-.1,1.078-1.057,1.078H1.071C.1,43.646,0,43.549,0,42.581c0-7.339,0-12.187,0-19.526M32.124,42.524V10.186c-.231-.014-.434-.029-.637-.038Q26.343,9.906,21.2,9.663c-.741-.036-.847-.18-.8-.9q.262-3.668.508-7.338a1.868,1.868,0,0,0-.025-.3H1.145v41.4ZM30.877,9.05l.044-.142-8.965-7.3c-.155,2.4-.3,4.687-.451,7.008l9.372.434" transform="translate(0 0)" fill="#fff"/>
    <path id="Path_160" data-name="Path 160" d="M38.5,144.968h-9c-.132,0-.264,0-.4,0-.393-.007-.822-.029-.808-.554.013-.5.414-.549.823-.549q9.341.005,18.682.007a1.161,1.161,0,0,1,.6.109.648.648,0,0,1,.281.482.66.66,0,0,1-.34.444,1.437,1.437,0,0,1-.61.06q-4.614,0-9.227,0" transform="translate(-21.888 -111.286)" fill="#fff"/>
    <path id="Path_161" data-name="Path 161" d="M38.606,97.59q-4.611,0-9.223,0a1.342,1.342,0,0,1-.558-.033c-.177-.087-.418-.288-.415-.435a.846.846,0,0,1,.358-.549,1.027,1.027,0,0,1,.549-.063q9.251,0,18.5,0c.169,0,.378-.039.5.044.19.132.447.355.44.53s-.286.365-.483.49c-.109.069-.294.017-.445.017H38.606" transform="translate(-21.977 -74.646)" fill="#fff"/>
    <path id="Path_162" data-name="Path 162" d="M38.514,120.254q4.611,0,9.223,0a1.26,1.26,0,0,1,.556.035.745.745,0,0,1,.388.465.7.7,0,0,1-.332.5,1.235,1.235,0,0,1-.6.078q-9.251.005-18.5,0c-.094,0-.189,0-.283,0-.344-.026-.669-.116-.657-.537s.315-.546.706-.545q3.649.008,7.3,0h2.207" transform="translate(-21.893 -93.012)" fill="#fff"/>
    <path id="Path_163" data-name="Path 163" d="M47.726,73.938q-3.28,0-6.559,0a1.168,1.168,0,0,1-.554-.042c-.183-.112-.414-.334-.413-.507s.233-.39.414-.513c.119-.081.328-.036.5-.036q6.587,0,13.175,0a1.082,1.082,0,0,1,.5.033c.171.1.38.288.4.455a.7.7,0,0,1-.3.523,1.155,1.155,0,0,1-.6.085q-3.28.007-6.559,0" transform="translate(-31.096 -56.334)" fill="#fff"/>
  </g>
</svg>
