<svg id="Group_65" data-name="Group 65" xmlns="http://www.w3.org/2000/svg" xmlns:xlink="http://www.w3.org/1999/xlink" width="20.697" height="29.617" viewBox="0 0 20.697 29.617">
  <defs>
    <clipPath id="clip-path">
      <rect id="Rectangle_188" data-name="Rectangle 188" width="20.697" height="29.616" fill="none"/>
    </clipPath>
  </defs>
  <g id="Group_64" data-name="Group 64" clip-path="url(#clip-path)">
    <path id="Path_74" data-name="Path 74" d="M6.1,0H14.6a6.151,6.151,0,0,1,4.3,1.749A5.863,5.863,0,0,1,20.7,5.955V23.662a5.862,5.862,0,0,1-1.791,4.205,6.142,6.142,0,0,1-4.3,1.749H6.1a6.141,6.141,0,0,1-4.3-1.749A5.863,5.863,0,0,1,0,23.662V5.955A5.862,5.862,0,0,1,1.791,1.749,6.151,6.151,0,0,1,6.1,0M14.6,1.323H6.1A4.78,4.78,0,0,0,2.748,2.685a4.566,4.566,0,0,0-1.393,3.27V23.662a4.563,4.563,0,0,0,1.393,3.27A4.779,4.779,0,0,0,6.1,28.293H14.6a4.78,4.78,0,0,0,3.347-1.361,4.562,4.562,0,0,0,1.393-3.27V5.955a4.567,4.567,0,0,0-1.393-3.27A4.779,4.779,0,0,0,14.6,1.323Z" fill="#fff"/>
    <path id="Path_75" data-name="Path 75" d="M81.373,181.252l3.242,2.163,3.25-2.289.789,1.071-4.019,2.832-4.024-2.685Z" transform="translate(-74.277 -167.222)" fill="#fff"/>
    <path id="Path_76" data-name="Path 76" d="M81.373,231.175l3.242,2.161,3.25-2.287.789,1.068-4.019,2.832-4.024-2.685Z" transform="translate(-74.277 -213.313)" fill="#fff"/>
    <path id="Path_77" data-name="Path 77" d="M81.373,276.192l3.242,2.163,3.25-2.29.789,1.069-4.019,2.832-4.024-2.685Z" transform="translate(-74.277 -254.874)" fill="#fff"/>
    <rect id="Rectangle_187" data-name="Rectangle 187" width="1.355" height="5.695" transform="translate(9.671 6)" fill="#fff"/>
  </g>
</svg>
