<svg xmlns="http://www.w3.org/2000/svg" xmlns:xlink="http://www.w3.org/1999/xlink" width="50" height="50" viewBox="0 0 50 50">
  <defs>
    <clipPath id="clip-Artboard_2">
      <rect width="50" height="50"/>
    </clipPath>
  </defs>
  <g id="Artboard_2" data-name="Artboard – 2" clip-path="url(#clip-Artboard_2)">
    <g id="Group_302" data-name="Group 302" transform="translate(-1173.602 -371.315)">
      <path id="Path_59" data-name="Path 59" d="M80.188,27.213a4.422,4.422,0,0,0-.606-.354c-.178-.086-.334-.15-.453-.2a.175.175,0,0,0-.259.176,8.379,8.379,0,0,1-3.2,7.55,16.635,16.635,0,0,1-8.5,3.573H67.15q-.768.124-1.613.213a15.654,15.654,0,0,1-4.746-.212c-3.985-.856-6.477-3.29-4.333-5.2a.183.183,0,0,0-.23-.286c-2.7,1.977-1.5,3.49-.176,4.663a11.428,11.428,0,0,0,1.216.829c4.075,2.165,12.257,1.892,18.362.109.133-.039.265-.079.4-.116v0C82.531,35.949,86.933,31.974,80.188,27.213Z" transform="translate(1137.542 363.218)" fill="#004a80"/>
      <path id="Path_60" data-name="Path 60" d="M65.245,12.475c6.08,1.712,9.151,3.354,11.14,5.272,1.862,1.8,2.855,3.783,1.25,6.281-1.968,3.063-10.693,4.149-13.894,1.241a.183.183,0,0,0-.26.257c1.9,2.144,4.8,2.33,7.364,2.324,13.862-.033,17.877-17.192-4.141-15.926a10.465,10.465,0,0,0-1.441.194A.18.18,0,0,0,65.245,12.475Z" transform="translate(1131.826 372.793)" fill="#004a80"/>
      <path id="Path_61" data-name="Path 61" d="M17.317,21.109a43.158,43.158,0,0,1,14.426-2.373c3.972.062,7.944.624,11.417,2.657,3.873,2.266,1.857,6.682-4.859,6.665a.183.183,0,1,0-.009.366c4.433.213,6.209-.972,7.521-2.163,3.547-3.222-1.714-7.467-8.272-9.479-6.727-2.064-15.479-2.083-20.029,3.3a2,2,0,0,0-.3.473c-.057.126-.086.23-.118.312A.175.175,0,0,0,17.317,21.109Z" transform="translate(1161.868 370.434)" fill="#004a80"/>
      <path id="Path_62" data-name="Path 62" d="M16.894,31.925c2.065-1.733,4.975-3.24,10.131-3.788,6.633-.7,11.966,2.842,9.078,5.41a.183.183,0,0,0,.23.285c2.7-1.977,1.5-3.49.176-4.663-3.413-3.035-12.782-2.923-19.576-.937-6.241,1.824-10.758,5.441-5.852,9.837h0a14.128,14.128,0,0,0,1.294,1.022,4.711,4.711,0,0,0,.6.383,2.943,2.943,0,0,0,.453.2.2.2,0,0,0,.27-.2,12.538,12.538,0,0,1,0-1.407h-.01l.01-.006A8.152,8.152,0,0,1,16.894,31.925Z" transform="translate(1167.101 363.108)" fill="#004a80"/>
      <path id="Path_63" data-name="Path 63" d="M73.53,45.042c-.081.025-.162.051-.242.081h-.019A42.865,42.865,0,0,1,59.1,47.415a23.7,23.7,0,0,1-10.741-2.284h0c-.226-.119-.45-.242-.672-.372-3.873-2.266-1.857-6.682,4.858-6.666a.183.183,0,1,0,.009-.366c-4.434-.214-6.209.971-7.521,2.163-1.789,1.625-1.338,3.509.389,5.241h.006a19.876,19.876,0,0,0,7.878,4.238c6.727,2.065,15.479,2.084,20.029-3.3a1.993,1.993,0,0,0,.3-.473c.056-.126.086-.231.118-.313a.2.2,0,0,0,0-.152A.176.176,0,0,0,73.53,45.042Z" transform="translate(1144.488 356.045)" fill="#004a80"/>
      <path id="Path_64" data-name="Path 64" d="M46.007,48.073c-6.08-1.713-9.152-3.354-11.14-5.273a10.714,10.714,0,0,1-.85-.913v0a4.145,4.145,0,0,1-.4-5.366c1.969-3.063,10.693-4.149,13.894-1.242a.183.183,0,0,0,.26-.257c-1.9-2.144-4.8-2.33-7.364-2.324-7.346.017-11.926,4.845-11.332,9.191.527,3.855,5.125,7.331,15.474,6.737a10.589,10.589,0,0,0,1.441-.195A.18.18,0,0,0,46.007,48.073Z" transform="translate(1154.125 359.288)" fill="#004a80"/>
    </g>
  </g>
</svg>
