<svg xmlns="http://www.w3.org/2000/svg" width="221.899" height="25.536" viewBox="0 0 221.899 25.536">
  <g id="Group_83" data-name="Group 83" transform="translate(-1176.101 -384.651)">
    <path id="Path_59" data-name="Path 59" d="M82.609,27.268a4.842,4.842,0,0,0-.664-.388c-.195-.094-.366-.164-.5-.224a.191.191,0,0,0-.284.192,9.172,9.172,0,0,1-3.5,8.265,18.209,18.209,0,0,1-9.3,3.912h-.023q-.84.135-1.766.233a17.136,17.136,0,0,1-5.195-.232c-4.362-.937-7.09-3.6-4.743-5.688a.2.2,0,0,0-.252-.313c-2.954,2.164-1.637,3.821-.193,5.1a12.51,12.51,0,0,0,1.331.907c4.46,2.37,13.418,2.071,20.1.119.145-.043.29-.087.433-.127v0C85.174,36.831,89.992,32.48,82.609,27.268Z" transform="translate(1139.062 363.71)" fill="#004a80"/>
    <path id="Path_60" data-name="Path 60" d="M65.417,12.534c6.655,1.875,10.017,3.671,12.194,5.771,2.038,1.967,3.125,4.141,1.369,6.875-2.155,3.353-11.706,4.542-15.209,1.359a.2.2,0,0,0-.285.281c2.08,2.347,5.25,2.55,8.061,2.544,15.175-.036,19.569-18.819-4.533-17.434a11.455,11.455,0,0,0-1.578.212A.2.2,0,0,0,65.417,12.534Z" transform="translate(1133.64 372.793)" fill="#004a80"/>
    <path id="Path_61" data-name="Path 61" d="M17.34,21.64a47.243,47.243,0,0,1,15.791-2.6c4.348.067,8.7.683,12.5,2.908,4.24,2.481,2.033,7.315-5.319,7.3a.2.2,0,1,0-.01.4c4.853.233,6.8-1.064,8.233-2.368,3.883-3.527-1.876-8.173-9.055-10.376-7.364-2.26-16.944-2.281-21.925,3.613a2.183,2.183,0,0,0-.332.518c-.062.138-.094.252-.129.342A.192.192,0,0,0,17.34,21.64Z" transform="translate(1162.137 370.555)" fill="#004a80"/>
    <path id="Path_62" data-name="Path 62" d="M17.641,32.41c2.261-1.9,5.446-3.547,11.09-4.146,7.261-.77,13.1,3.111,9.938,5.922a.2.2,0,0,0,.252.312c2.954-2.164,1.637-3.82.192-5.1-3.736-3.323-13.992-3.2-21.429-1.026-6.832,2-11.777,5.956-6.406,10.769h0a15.464,15.464,0,0,0,1.417,1.119,5.157,5.157,0,0,0,.653.419,3.222,3.222,0,0,0,.5.222.214.214,0,0,0,.3-.221,13.725,13.725,0,0,1,0-1.54H14.13l.011-.007A8.923,8.923,0,0,1,17.641,32.41Z" transform="translate(1167.101 363.605)" fill="#004a80"/>
    <path id="Path_63" data-name="Path 63" d="M76.336,45.737c-.089.027-.177.056-.265.089H76.05a46.922,46.922,0,0,1-15.505,2.509,25.949,25.949,0,0,1-11.758-2.5h0c-.248-.13-.492-.265-.736-.408-4.24-2.481-2.033-7.315,5.318-7.3a.2.2,0,1,0,.01-.4c-4.853-.234-6.8,1.063-8.233,2.368-1.958,1.779-1.465,3.841.425,5.737h.006A21.757,21.757,0,0,0,54.2,50.473c7.364,2.261,16.944,2.281,21.925-3.613a2.182,2.182,0,0,0,.332-.518c.062-.138.094-.252.129-.342a.221.221,0,0,0,0-.166A.193.193,0,0,0,76.336,45.737Z" transform="translate(1145.65 356.906)" fill="#004a80"/>
    <path id="Path_64" data-name="Path 64" d="M47.615,49.528C40.96,47.653,37.6,45.857,35.42,43.757a11.729,11.729,0,0,1-.93-1v0a4.538,4.538,0,0,1-.439-5.874c2.155-3.353,11.706-4.542,15.209-1.36a.2.2,0,0,0,.285-.281c-2.08-2.347-5.25-2.55-8.062-2.544-8.042.019-13.055,5.3-12.405,10.061.577,4.22,5.61,8.025,16.939,7.374a11.591,11.591,0,0,0,1.578-.213A.2.2,0,0,0,47.615,49.528Z" transform="translate(1154.792 359.982)" fill="#004a80"/>
    <path id="Path_65" data-name="Path 65" d="M159.99,33.265a4.273,4.273,0,0,1-4.235,2.725c-2.794,0-3.972-1.583-3.347-4.518s2.478-4.541,5.273-4.541c2.189,0,3.233,1.118,3,3.19h7.452c.787-4.8-2.5-7.5-9.537-7.5-7.5,0-11.961,3.028-13.2,8.85s1.939,8.849,9.436,8.849c6.707,0,11.023-2.445,12.678-7.056Z" transform="translate(1083.409 366.176)" fill="#004a80"/>
    <path id="Path_66" data-name="Path 66" d="M474.346,22.622c-7.5,0-11.961,3.028-13.2,8.85s1.938,8.849,9.437,8.849,11.961-3.027,13.2-8.849S481.844,22.622,474.346,22.622Zm2.187,8.85c-.624,2.934-2.475,4.518-5.268,4.518s-3.972-1.583-3.348-4.518,2.479-4.541,5.274-4.541S477.156,28.537,476.533,31.472Z" transform="translate(889.3 366.176)" fill="#004a80"/>
    <path id="Path_67" data-name="Path 67" d="M535.089,23.772l-2.057,9.688-4.439-9.688h-7.708l-3.574,16.813h6.148l2.094-9.85,4.961,9.85h7.313L541.4,23.772Z" transform="translate(854.612 365.469)" fill="#004a80"/>
    <path id="Path_68" data-name="Path 68" d="M427.749,28.289a3.271,3.271,0,0,0-1.156-3.655c-.933-.652-2.728-.862-5.382-.862H408.4l-3.574,16.813h6.613l1.089-5.122h3.889c1.607,0,2.123.419,2,1.676-.139,1.42-.629,2.632-.289,3.446h7.241l.054-.255c-.707-.4-.416-1.771-.017-4.192.313-1.91.3-2.841-1.333-3.585A5.747,5.747,0,0,0,427.749,28.289ZM420.3,29.5c-.258,1.211-1.235,1.537-3.028,1.537h-3.8l.638-3h3.633C419.653,28.033,420.568,28.22,420.3,29.5Z" transform="translate(923.762 365.469)" fill="#004a80"/>
    <path id="Path_69" data-name="Path 69" d="M316.853,23.065h-18.7l-.51,2.4c-1.016-1.972-4.032-2.844-9.1-2.844-6.567,0-10.019,1.561-10.836,5.4-.6,2.818,1.088,4.518,5.014,5.006l4.739.605c1.521.186,2.2.606,2.046,1.328-.173.814-1.143,1.21-2.889,1.21-1.793,0-2.7-.536-2.633-1.42H276.09a5.188,5.188,0,0,0-.092.791H264.313l.47-2.212h9.153l.881-4.145h-9.151l.426-2h11.294l.876-4.122H260.445l-3.573,16.813h18.373l.776-3.65c.3,2.652,3.211,4.163,8.651,4.163,7.731,0,11.81-1.77,12.706-5.984.589-2.77-.909-4.378-4.5-4.915l-5.759-.838c-1.627-.232-2.4-.442-2.239-1.187.139-.653,1.053-1.118,2.59-1.118,2.027,0,3,.559,2.941,1.607h7.569a5.767,5.767,0,0,0,.051-.629h5.294l-2.669,12.552h6.521l2.667-12.552h6.1Z" transform="translate(1014.719 366.176)" fill="#004a80"/>
    <path id="Path_70" data-name="Path 70" d="M224.592,28.289a3.272,3.272,0,0,0-1.156-3.655c-.933-.652-2.728-.862-5.382-.862H205.245l-3.573,16.813h6.613l1.09-5.122h3.889c1.606,0,2.123.419,2,1.676-.139,1.42-.629,2.632-.29,3.446h7.242l.055-.255c-.707-.4-.416-1.771-.017-4.192.313-1.91.3-2.841-1.333-3.585A5.745,5.745,0,0,0,224.592,28.289ZM217.139,29.5c-.257,1.211-1.235,1.537-3.029,1.537h-3.8l.638-3h3.633C216.5,28.033,217.411,28.22,217.139,29.5Z" transform="translate(1048.654 365.469)" fill="#004a80"/>
    <path id="Path_71" data-name="Path 71" d="M579.479,59.943c0-.452-.268-.653-.809-.653H577.8v2.293h.346v-.994h.4l.6.994h.39l-.653-1.009A.6.6,0,0,0,579.479,59.943Zm-1.335.352v-.709h.474c.242,0,.5.053.5.336,0,.352-.263.373-.558.373Z" transform="translate(817.428 343.634)" fill="#004a80"/>
    <path id="Path_72" data-name="Path 72" d="M576.566,57.11a1.987,1.987,0,1,0,2.008,1.981A1.984,1.984,0,0,0,576.566,57.11Zm0,3.643a1.657,1.657,0,1,1,1.608-1.662A1.607,1.607,0,0,1,576.566,60.753Z" transform="translate(819.426 344.974)" fill="#004a80"/>
  </g>
</svg>
